<?xml version="1.0" encoding="UTF-8"?>
<svg width="2480px" height="660px" viewBox="0 0 2480 660" version="1.1" xmlns="http://www.w3.org/2000/svg" xmlns:xlink="http://www.w3.org/1999/xlink">
    <!-- Generator: Sketch 52.1 (67048) - http://www.bohemiancoding.com/sketch -->
    <title>storybook-1</title>
    <desc>Created with Sketch.</desc>
    <defs>
        <polygon id="path-1" points="0 0 2500 0 2500 705.882353 0 705.882353"></polygon>
    </defs>
    <g id="Page-1" stroke="none" stroke-width="1" fill="none" fill-rule="evenodd">
        <g id="storybook-1" transform="translate(-12.000000, -19.000000)">
            <mask id="mask-2" fill="white">
                <use xlink:href="#path-1"></use>
            </mask>
            <g id="Path"></g>
            <g id="Group" mask="url(#mask-2)">
                <g transform="translate(12.254902, 19.607843)">
                    <g id="b-link" transform="translate(0.000000, 34.313725)">
                        <polygon id="b" fill="#B57EE5" points="51.4705882 602.941176 22.0588235 0 0 0 22.0588235 602.941176"></polygon>
                    </g>
                    <g id="c-link" transform="translate(34.313725, 0.000000)">
                        <polygon id="c" fill="#F1618C" points="29.4117647 637.254902 0 34.3137255 480.392157 0 480.392157 659.313725"></polygon>
                    </g>
                    <g id="d-link" transform="translate(392.156863, 1.225490)">
                        <polygon id="d" fill="#FFFFFF" points="0 87.0098039 6.12745098 4.90196078 63.7254902 0 63.7254902 87.0098039 34.7598039 60.8088235"></polygon>
                    </g>
                    <g id="Group" transform="translate(558.823529, 117.647059)">
                        <g id="e-link" transform="translate(634.803922, 115.196078)" fill="#6DABF5" fill-rule="nonzero">
                            <path d="M213.335784,2.94117647 L132.992647,2.94117647 L132.992647,47.6960784 C132.992647,105.392157 132.453431,151.764706 132.453431,151.764706 C132.453431,180.343137 120.590686,187.892157 105.492647,187.892157 C89.8553922,187.892157 81.7671569,180.882353 81.7671569,150.686275 C81.7671569,106.470588 85.002451,19.1176471 85.002451,19.1176471 L4.65931373,16.9607843 C4.65931373,15.8823529 1.96323529,83.8235294 1.96323529,164.166667 C1.96323529,244.509804 52.6495098,250.441176 75.8357843,250.441176 C97.9436275,250.441176 122.208333,241.813725 135.14951,227.794118 C135.14951,273.627451 120.590686,288.72549 88.2377451,288.72549 C67.747549,288.72549 42.9436275,278.480392 29.4632353,267.156863 L29.4632353,341.029412 C52.1102941,354.509804 77.4534314,360.441176 102.796569,360.441176 C156.718137,360.441176 209.561275,329.166667 210.639706,239.117647 C212.257353,138.823529 212.796569,38.5294118 213.335784,2.94117647 Z M619.095588,2.40196078 C537.134804,2.40196078 502.085784,68.1862745 502.085784,146.372549 C502.085784,212.696078 534.438725,262.303922 611.546569,262.303922 C697.821078,262.303922 728.556373,197.598039 728.556373,122.647059 C728.556373,53.0882353 698.360294,2.40196078 619.095588,2.40196078 Z M647.67402,132.892157 C647.67402,167.941176 635.811275,194.901961 611.546569,194.901961 C591.056373,194.901961 582.968137,171.176471 582.968137,146.372549 C582.968137,106.470588 596.987745,75.7352941 619.095588,75.7352941 C641.742647,75.7352941 647.67402,105.392157 647.67402,132.892157 Z" id="e"></path>
                        </g>
                        <g id="f-link" transform="translate(0.000000, 39.215686)" fill="#F3AD38">
                            <path d="M48.2352941,338.823529 C89.754902,339.362745 129.656863,333.970588 129.656863,333.970588 C129.656863,263.333333 129.656863,197.009804 130.196078,146.862745 C151.764706,144.705882 169.558824,142.009804 169.558824,142.009804 C170.637255,108.039216 167.941176,77.3039216 167.941176,77.3039216 L131.27451,79.4607843 C132.352941,28.2352941 133.431373,1.81372549 133.431373,1.81372549 L47.1568627,7.20588235 C47.1568627,7.20588235 47.1568627,39.0196078 47.6960784,87.5490196 C21.2745098,90.7843137 1.8627451,96.1764706 1.8627451,96.1764706 C2.94117647,124.754902 13.1862745,155.490196 13.1862745,155.490196 L48.2352941,153.872549 L48.2352941,338.823529 Z" id="f"></path>
                        </g>
                        <g id="g-link" transform="translate(453.431373, 122.549020)" fill="#B57EE6">
                            <path d="M81.5588235,28.4803922 C81.5588235,20.3921569 82.0980392,11.7647059 82.6372549,3.1372549 L7.68627451,0.441176471 C7.68627451,0.441176471 0.676470588,110.441176 1.21568627,254.95098 C37.3431373,257.647059 79.4019608,257.647059 79.4019608,257.647059 C78.8627451,257.647059 79.4019608,209.656863 81.5588235,137.401961 C82.6372549,95.3431373 97.7352941,82.4019608 120.382353,82.4019608 C133.862745,82.4019608 150.578431,88.3333333 150.578431,88.3333333 L159.205882,13.3823529 C124.156863,1.51960784 91.8039216,11.7647059 81.5588235,28.4803922 Z" id="g"></path>
                        </g>
                        <g id="h-link" transform="translate(892.156863, 0.000000)" fill="#F16161" fill-rule="nonzero">
                            <path d="M76.0441176,376.421569 C76.0441176,364.558824 77.122549,353.77451 77.122549,349.460784 C86.2892157,362.941176 104.083333,374.803922 126.191176,374.803922 C188.20098,374.803922 215.161765,313.872549 216.779412,241.617647 C217.857843,173.137255 191.97549,115.980392 134.818627,115.980392 C113.789216,115.980392 95.995098,127.303922 86.2892157,139.166667 C91.1421569,58.8235294 94.9166667,7.59803922 94.9166667,7.59803922 L13.495098,1.66666667 C8.64215686,57.745098 1.09313725,243.235294 2.17156863,378.578431 C49.0833333,379.656863 76.0441176,376.421569 76.0441176,376.421569 Z M80.8970588,269.117647 C79.8186275,254.558824 77.122549,189.852941 108.397059,189.852941 C130.504902,189.852941 135.897059,216.813725 134.818627,243.77451 C134.279412,272.892157 128.348039,305.784314 105.70098,305.784314 C90.0637255,305.784314 82.5147059,294.460784 80.8970588,269.117647 Z" id="h"></path>
                        </g>
                        <g id="i-link" transform="translate(1659.313725, 17.156863)" fill="#B57EE5">
                            <path d="M241.198529,118.235294 L156.541667,106.911765 C156.541667,106.911765 127.42402,150.588235 86.4436275,200.735294 C92.9142157,85.8823529 101.002451,8.7745098 101.002451,8.7745098 L13.1102941,0.68627451 C13.1102941,0.68627451 3.40441176,200.196078 1.24754902,358.72549 C37.9142157,363.039216 80.5122549,363.039216 80.5122549,363.039216 L83.2083333,268.137255 C123.110294,313.431373 167.865196,360.343137 167.865196,360.343137 L261.14951,345.245098 C207.227941,291.323529 170.561275,253.578431 152.767157,229.852941 C173.257353,202.352941 209.92402,158.676471 241.198529,118.235294 Z" id="i"></path>
                        </g>
                        <g id="j-link" transform="translate(188.725490, 115.196078)" fill="#A2E05E" fill-rule="nonzero">
                            <path d="M117.862745,2.40196078 C35.9019608,2.40196078 0.852941176,68.1862745 0.852941176,146.372549 C0.852941176,212.696078 33.2058824,262.303922 110.313725,262.303922 C196.588235,262.303922 227.323529,197.598039 227.323529,122.647059 C227.323529,53.0882353 197.125,2.40196078 117.862745,2.40196078 Z M146.441176,132.892157 C146.441176,167.941176 134.57598,194.901961 110.313725,194.901961 C89.8235294,194.901961 81.7352941,171.176471 81.7352941,146.372549 C81.7352941,106.470588 95.752451,75.7352941 117.862745,75.7352941 C140.509804,75.7352941 146.441176,105.392157 146.441176,132.892157 Z M1321.61765,2.40196078 C1239.65686,2.40196078 1204.60784,68.1862745 1204.60784,146.372549 C1204.60784,212.696078 1236.96078,262.303922 1314.06863,262.303922 C1400.34314,262.303922 1431.07843,197.598039 1431.07843,122.647059 C1431.07843,53.0882353 1400.88235,2.40196078 1321.61765,2.40196078 Z M1350.19608,132.892157 C1350.19608,167.941176 1338.33333,194.901961 1314.06863,194.901961 C1293.57843,194.901961 1285.4902,171.176471 1285.4902,146.372549 C1285.4902,106.470588 1299.5098,75.7352941 1321.61765,75.7352941 C1344.26471,75.7352941 1350.19608,105.392157 1350.19608,132.892157 Z" id="j"></path>
                        </g>
                    </g>
                    <g id="k-link" transform="translate(147.058824, 117.647059)">
                        <path d="M168.235294,140.392157 L262.941176,138.039216 C265.294118,46.2745098 217.647059,0.980392157 134.705882,0.980392157 C51.7647059,0.980392157 5.29411765,48.0392157 5.29411765,118.627451 C5.29411765,241.568627 164.117647,243.921569 164.117647,310.980392 C164.117647,329.803922 155.294118,340.980392 135.882353,340.980392 C110.588235,340.980392 100.588235,324.509804 101.764706,278.627451 L2.35294118,278.627451 C-5.29411765,392.156863 61.1764706,418.039216 137.058824,418.039216 C210.588235,418.039216 268.235294,383.921569 268.235294,309.803922 C268.235294,178.039216 107.058824,181.568627 107.058824,116.27451 C107.058824,89.8039216 125.882353,86.2745098 137.058824,86.2745098 C148.823529,86.2745098 170,90.9803922 168.235294,140.392157 Z" id="k" fill="#FFFFFF"></path>
                    </g>
                </g>
            </g>
        </g>
    </g>
</svg>